<svg xmlns="http://www.w3.org/2000/svg" viewBox="0 0 1600 900" width="1600" height="900">
  <defs>
    <style>
      .title { font-family: Inter, Arial, sans-serif; font-size: 46px; font-weight: 800; fill: #152238; }
      .subtitle { font-family: Inter, Arial, sans-serif; font-size: 22px; font-weight: 700; fill: #152238; }
      .card-heading { font-family: Inter, Arial, sans-serif; font-size: 24px; font-weight: 700; fill: #FFFFFF; }
      .card-body { font-family: Inter, Arial, sans-serif; font-size: 24px; font-weight: 700; fill: #152238; }
    </style>
    <marker id="arrow-teal" viewBox="0 0 10 10" refX="6" refY="5" markerWidth="7" markerHeight="7" orient="auto-start-reverse">
      <path d="M 0 1 L 10 5 L 0 9 z" fill="#2A9D8F" />
    </marker>
    <marker id="arrow-amber" viewBox="0 0 10 10" refX="6" refY="5" markerWidth="7" markerHeight="7" orient="auto-start-reverse">
      <path d="M 0 1 L 10 5 L 0 9 z" fill="#E9C46A" />
    </marker>
  </defs>

  <rect width="1600" height="900" fill="#FFFFFF" />

  <text x="800" y="65" text-anchor="middle" class="title">Get More From Your AI</text>

  <rect x="60" y="100" width="1480" height="55" rx="10" fill="#F4F6F8" stroke="#2A9D8F" stroke-width="2" />
  <text x="800" y="134" text-anchor="middle" class="subtitle">Move up a layer only when the one you are on stops saving you time, not because the next one sounds more advanced.</text>

  <!-- Row 1: Stages 1 to 3 -->
  <g id="stage-1">
    <rect x="60" y="195" width="435" height="280" rx="12" fill="#F4F6F8" stroke="#C1C9D2" stroke-width="1.5" />
    <rect x="100" y="212" width="150" height="36" rx="18" fill="#2A9D8F" />
    <text x="175" y="236" text-anchor="middle" class="card-heading">Stage 1</text>

    <g transform="translate(90, 258)">
      <path d="M 4 4 L 66 4 C 70 4 73 7 73 11 L 73 41 C 73 45 70 48 66 48 L 26 48 L 12 60 L 14 48 L 9 48 C 5 48 4 45 4 41 Z"
            fill="none" stroke="#2A9D8F" stroke-width="4" stroke-linejoin="round" />
      <path d="M 80 6 L 84 15 L 93 19 L 84 23 L 80 32 L 76 23 L 67 19 L 76 15 Z" fill="#2A9D8F" stroke="none" />
    </g>

    <text x="175" y="380" text-anchor="middle" class="card-body">A single setup prompt</text>
  </g>

  <path d="M 495 335 L 527 335" stroke="#2A9D8F" stroke-width="3" fill="none" marker-end="url(#arrow-teal)" />

  <g id="stage-2">
    <rect x="583" y="195" width="435" height="280" rx="12" fill="#F4F6F8" stroke="#C1C9D2" stroke-width="1.5" />
    <rect x="623" y="212" width="150" height="36" rx="18" fill="#2A9D8F" />
    <text x="698" y="236" text-anchor="middle" class="card-heading">Stage 2</text>

    <g transform="translate(658, 258)">
      <rect x="10" y="8" width="42" height="18" rx="4" fill="#FFFFFF" stroke="#2A9D8F" stroke-width="3.5" />
      <path d="M 4 20 L 4 62 C 4 66 7 69 11 69 L 79 69 C 83 69 86 66 86 62 L 86 30 C 86 26 83 23 79 23 L 34 23 L 28 14 Z"
            fill="none" stroke="#2A9D8F" stroke-width="4" stroke-linejoin="round" />
    </g>

    <text x="698" y="380" text-anchor="middle" class="card-body">
      <tspan x="698" dy="0">A project with real</tspan>
      <tspan x="698" dy="28">reference material</tspan>
    </text>
  </g>

  <path d="M 1018 335 L 1050 335" stroke="#2A9D8F" stroke-width="3" fill="none" marker-end="url(#arrow-teal)" />

  <g id="stage-3">
    <rect x="1106" y="195" width="435" height="280" rx="12" fill="#F4F6F8" stroke="#C1C9D2" stroke-width="1.5" />
    <rect x="1146" y="212" width="150" height="36" rx="18" fill="#2A9D8F" />
    <text x="1221" y="236" text-anchor="middle" class="card-heading">Stage 3</text>

    <g transform="translate(1181, 258)" fill="none" stroke="#2A9D8F" stroke-width="4" stroke-linecap="round" stroke-linejoin="round">
      <path d="M 8 34 A 26 26 0 0 1 60 20" />
      <path d="M 52 12 L 60 20 L 50 26" />
      <path d="M 60 34 A 26 26 0 0 1 8 48" />
      <path d="M 16 56 L 8 48 L 18 42" />
      <path d="M 24 34 L 31 41 L 44 26" stroke-width="4.5" />
    </g>

    <text x="1221" y="380" text-anchor="middle" class="card-body">
      <tspan x="1221" dy="0">Repeatable skills, not</tspan>
      <tspan x="1221" dy="28">reworded prompts</tspan>
    </text>
  </g>

  <!-- Connector down to row 2 -->
  <path d="M 800 490 L 800 522" stroke="#152238" stroke-width="3" fill="none" marker-end="url(#arrow-teal)" />

  <!-- Row 2: Stages 4 to 5, centred -->
  <g id="stage-4">
    <rect x="298" y="545" width="435" height="280" rx="12" fill="#F4F6F8" stroke="#C1C9D2" stroke-width="1.5" />
    <rect x="338" y="562" width="150" height="36" rx="18" fill="#2A9D8F" />
    <text x="413" y="586" text-anchor="middle" class="card-heading">Stage 4</text>

    <g transform="translate(380, 610)" fill="none" stroke="#2A9D8F" stroke-width="4" stroke-linecap="round" stroke-linejoin="round">
      <circle cx="12" cy="24" r="12" fill="#FFFFFF" />
      <circle cx="76" cy="24" r="12" fill="#FFFFFF" />
      <line x1="24" y1="24" x2="42" y2="24" />
      <path d="M 42 24 L 48 12 L 54 34 L 60 24 L 64 24" />
    </g>

    <text x="413" y="730" text-anchor="middle" class="card-body">
      <tspan x="413" dy="0">Live connections to</tspan>
      <tspan x="413" dy="28">your actual tools</tspan>
    </text>
  </g>

  <path d="M 733 685 L 765 685" stroke="#E9C46A" stroke-width="3" stroke-dasharray="7,5" fill="none" marker-end="url(#arrow-amber)" />

  <g id="stage-5">
    <rect x="821" y="545" width="435" height="280" rx="12" fill="#FFFCF0" stroke="#E9C46A" stroke-width="3" />
    <rect x="861" y="562" width="150" height="36" rx="18" fill="#E9C46A" />
    <text x="936" y="586" text-anchor="middle" class="card-heading" fill="#152238">Stage 5</text>

    <g transform="translate(900, 610)">
      <g fill="none" stroke="#E9C46A" stroke-width="4" stroke-linecap="round" stroke-linejoin="round">
        <circle cx="28" cy="28" r="15" />
        <circle cx="28" cy="28" r="5" fill="#E9C46A" stroke="none" />
        <line x1="28" y1="3" x2="28" y2="11" />
        <line x1="28" y1="45" x2="28" y2="53" />
        <line x1="3" y1="28" x2="11" y2="28" />
        <line x1="45" y1="28" x2="53" y2="28" />
        <line x1="9" y1="9" x2="15" y2="15" />
        <line x1="41" y1="41" x2="47" y2="47" />
        <line x1="47" y1="9" x2="41" y2="15" />
        <line x1="15" y1="41" x2="9" y2="47" />
      </g>
      <path d="M 58 46 L 78 46 L 68 28 Z" fill="#E9C46A" stroke="#152238" stroke-width="2.5" stroke-linejoin="round" />
      <line x1="68" y1="36" x2="68" y2="41" stroke="#152238" stroke-width="2.5" stroke-linecap="round" />
      <circle cx="68" cy="44.5" r="1.4" fill="#152238" />
    </g>

    <text x="936" y="730" text-anchor="middle" class="card-body" fill="#152238">
      <tspan x="936" dy="0">Automations and agents</tspan>
      <tspan x="936" dy="28">acting on your behalf</tspan>
    </text>
  </g>
</svg>
