<svg xmlns="http://www.w3.org/2000/svg" viewBox="0 0 1600 900" width="1600" height="900">
  <defs>
    <style>
      .title { font-family: Inter, Arial, sans-serif; font-size: 52px; font-weight: 800; fill: #152238; }
      .subtitle { font-family: Inter, Arial, sans-serif; font-size: 24px; font-weight: 400; fill: #152238; }
      .card-heading { font-family: Inter, Arial, sans-serif; font-size: 27px; font-weight: 700; fill: #152238; }
      .card-body { font-family: Inter, Arial, sans-serif; font-size: 20px; font-weight: 400; fill: #152238; }
    </style>
  </defs>

  <rect width="1600" height="900" fill="#FFFFFF" />

  <text x="800" y="130" text-anchor="middle" class="title">How I Approach It</text>
  <text x="800" y="185" text-anchor="middle" class="subtitle">AI prepares the work. A person stays in control of every decision.</text>

  <!-- Step 1 Card -->
  <g transform="translate(100, 260)">
    <rect width="400" height="430" rx="16" fill="#F4F6F8" />
    <path d="M 0 16 A 16 16 0 0 1 16 0 L 384 0 A 16 16 0 0 1 400 16 L 400 12 L 0 12 Z" fill="#2A9D8F" />

    <!-- Icon: magnifying glass over a short stack of info lines -->
    <g transform="translate(140, 60)" stroke="#152238" stroke-width="4.5" fill="none" stroke-linecap="round" stroke-linejoin="round">
      <rect x="18" y="18" width="78" height="98" rx="8" fill="#FFFFFF" stroke="#C7CDD6" stroke-width="3" />
      <line x1="34" y1="42" x2="82" y2="42" stroke="#C7CDD6" stroke-width="3" />
      <line x1="34" y1="60" x2="82" y2="60" stroke="#C7CDD6" stroke-width="3" />
      <line x1="34" y1="78" x2="66" y2="78" stroke="#C7CDD6" stroke-width="3" />
      <circle cx="86" cy="96" r="30" fill="#FFFFFF" stroke="#152238" />
      <line x1="107" y1="118" x2="126" y2="137" />
    </g>

    <text x="200" y="245" text-anchor="middle" class="card-heading">1. Start with the problem</text>
    <text x="200" y="305" text-anchor="middle" class="card-body">Use safe, relevant information</text>
  </g>

  <g transform="translate(515, 475)">
    <path d="M 0 0 L 70 0" stroke="#152238" stroke-width="4" stroke-linecap="round" />
    <path d="M 55 -12 L 72 0 L 55 12" stroke="#152238" stroke-width="4" stroke-linecap="round" stroke-linejoin="round" fill="none" />
  </g>

  <!-- Step 2 Card -->
  <g transform="translate(600, 260)">
    <rect width="400" height="430" rx="16" fill="#F4F6F8" />
    <path d="M 0 16 A 16 16 0 0 1 16 0 L 384 0 A 16 16 0 0 1 400 16 L 400 12 L 0 12 Z" fill="#2A9D8F" />

    <!-- Icon: folder with a document peeking out, plus a small spark to signal AI drafting -->
    <g transform="translate(148, 60)" stroke="#152238" stroke-width="4.5" fill="none" stroke-linecap="round" stroke-linejoin="round">
      <rect x="16" y="30" width="70" height="30" rx="6" fill="#FFFFFF" stroke="#C7CDD6" stroke-width="3" />
      <line x1="28" y1="40" x2="58" y2="40" stroke="#C7CDD6" stroke-width="3" />
      <line x1="28" y1="50" x2="52" y2="50" stroke="#C7CDD6" stroke-width="3" />
      <path d="M 6 46 L 6 108 C 6 112 9 115 13 115 L 91 115 C 95 115 98 112 98 108 L 98 62 C 98 58 95 55 91 55 L 56 55 L 46 46 Z" fill="#FFFFFF" />
      <path d="M 118 40 L 123 52 L 135 57 L 123 62 L 118 74 L 113 62 L 101 57 L 113 52 Z" fill="#2A9D8F" stroke="none" />
    </g>

    <text x="200" y="245" text-anchor="middle" class="card-heading">2. Let AI prepare</text>
    <text x="200" y="305" text-anchor="middle" class="card-body">Organise, draft and spot gaps</text>
  </g>

  <g transform="translate(1015, 475)">
    <path d="M 0 0 L 70 0" stroke="#152238" stroke-width="4" stroke-linecap="round" />
    <path d="M 55 -12 L 72 0 L 55 12" stroke="#152238" stroke-width="4" stroke-linecap="round" stroke-linejoin="round" fill="none" />
  </g>

  <!-- Step 3 Card: human decision point -->
  <g transform="translate(1100, 260)">
    <rect width="400" height="430" rx="16" fill="#FFFCF0" stroke="#E9C46A" stroke-width="3" />
    <path d="M 0 16 A 16 16 0 0 1 16 0 L 384 0 A 16 16 0 0 1 400 16 L 400 12 L 0 12 Z" fill="#E9C46A" />

    <!-- Icon: person with a checkmark badge, signalling human approval -->
    <g transform="translate(150, 55)" stroke="#152238" stroke-width="4.5" fill="none" stroke-linecap="round" stroke-linejoin="round">
      <circle cx="45" cy="34" r="24" fill="#FFFFFF" />
      <path d="M 4 118 C 4 88 21 68 45 68 C 69 68 86 88 86 118" fill="#FFFFFF" />
      <circle cx="90" cy="94" r="26" fill="#E9C46A" stroke="#152238" stroke-width="3.5" />
      <path d="M 78 94 L 87 103 L 103 84" stroke="#152238" stroke-width="4.5" fill="none" />
    </g>

    <text x="200" y="245" text-anchor="middle" class="card-heading">3. Keep a person in control</text>
    <text x="200" y="305" text-anchor="middle" class="card-body">Check, decide, act and improve</text>
  </g>
</svg>
