<svg viewBox="0 0 860 934" xmlns="http://www.w3.org/2000/svg" font-family="system-ui, -apple-system, 'Segoe UI', sans-serif">
<rect x="0" y="0" width="860" height="934" fill="#fcfcfb"/>
<text x="30" y="34" font-size="19" font-weight="700" fill="#0b0b0b">Cross-Model Post-Call Comparison</text>
<text x="30" y="56" font-size="13" fill="#52514e">Same transcript, same prompt, one fresh run per model, scored against the same rubric. One data point, not a ranking.</text>
<circle cx="36" cy="86" r="6" fill="#2a78d6"/>
<text x="48" y="90" font-size="13" fill="#0b0b0b">ChatGPT</text>
<circle cx="144" cy="86" r="6" fill="#008300"/>
<text x="156" y="90" font-size="13" fill="#0b0b0b">Claude</text>
<circle cx="244" cy="86" r="6" fill="#e87ba4"/>
<text x="256" y="90" font-size="13" fill="#0b0b0b">Gemini</text>
<text x="30" y="126" font-size="14" font-weight="600" fill="#0b0b0b">Overall score (out of 50)</text>
<line x1="110.0" y1="140" x2="110.0" y2="240" stroke="#e1e0d9" stroke-width="1"/>
<text x="110.0" y="256" font-size="11" fill="#898781" text-anchor="middle">0</text>
<line x1="222.0" y1="140" x2="222.0" y2="240" stroke="#e1e0d9" stroke-width="1"/>
<text x="222.0" y="256" font-size="11" fill="#898781" text-anchor="middle">10</text>
<line x1="334.0" y1="140" x2="334.0" y2="240" stroke="#e1e0d9" stroke-width="1"/>
<text x="334.0" y="256" font-size="11" fill="#898781" text-anchor="middle">20</text>
<line x1="446.0" y1="140" x2="446.0" y2="240" stroke="#e1e0d9" stroke-width="1"/>
<text x="446.0" y="256" font-size="11" fill="#898781" text-anchor="middle">30</text>
<line x1="558.0" y1="140" x2="558.0" y2="240" stroke="#e1e0d9" stroke-width="1"/>
<text x="558.0" y="256" font-size="11" fill="#898781" text-anchor="middle">40</text>
<line x1="670.0" y1="140" x2="670.0" y2="240" stroke="#e1e0d9" stroke-width="1"/>
<text x="670.0" y="256" font-size="11" fill="#898781" text-anchor="middle">50</text>
<text x="98" y="160.4" font-size="13" fill="#52514e" text-anchor="end">ChatGPT</text>
<rect x="110" y="146" width="548.8" height="20" rx="4" fill="#2a78d6"/>
<text x="666.8" y="160.4" font-size="13" font-weight="600" fill="#0b0b0b">49 / 50</text>
<text x="98" y="194.4" font-size="13" fill="#52514e" text-anchor="end">Claude</text>
<rect x="110" y="180" width="515.2" height="20" rx="4" fill="#008300"/>
<text x="633.2" y="194.4" font-size="13" font-weight="600" fill="#0b0b0b">46 / 50</text>
<text x="98" y="228.4" font-size="13" fill="#52514e" text-anchor="end">Gemini</text>
<rect x="110" y="214" width="470.4" height="20" rx="4" fill="#e87ba4"/>
<text x="588.4" y="228.4" font-size="13" font-weight="600" fill="#0b0b0b">42 / 50</text>
<text x="30" y="286" font-size="14" font-weight="600" fill="#0b0b0b">Score by rubric criterion (0 to 5 each)</text>
<line x1="190.0" y1="300" x2="190.0" y2="838" stroke="#e1e0d9" stroke-width="1"/>
<line x1="286.0" y1="300" x2="286.0" y2="838" stroke="#e1e0d9" stroke-width="1"/>
<line x1="382.0" y1="300" x2="382.0" y2="838" stroke="#e1e0d9" stroke-width="1"/>
<line x1="478.0" y1="300" x2="478.0" y2="838" stroke="#e1e0d9" stroke-width="1"/>
<line x1="574.0" y1="300" x2="574.0" y2="838" stroke="#e1e0d9" stroke-width="1"/>
<line x1="670.0" y1="300" x2="670.0" y2="838" stroke="#e1e0d9" stroke-width="1"/>
<text x="176" y="330.0" font-size="12" fill="#52514e" text-anchor="end">Factual accuracy</text>
<rect x="190" y="306.0" width="480.0" height="12" rx="3" fill="#2a78d6"/>
<text x="676.0" y="315.6" font-size="10" fill="#0b0b0b">5</text>
<rect x="190" y="320.0" width="384.0" height="12" rx="3" fill="#008300"/>
<text x="580.0" y="329.6" font-size="10" fill="#0b0b0b">4</text>
<rect x="190" y="334.0" width="384.0" height="12" rx="3" fill="#e87ba4"/>
<text x="580.0" y="343.6" font-size="10" fill="#0b0b0b">4</text>
<text x="176" y="384.0" font-size="12" fill="#52514e" text-anchor="end">Evidence fidelity</text>
<rect x="190" y="360.0" width="480.0" height="12" rx="3" fill="#2a78d6"/>
<text x="676.0" y="369.6" font-size="10" fill="#0b0b0b">5</text>
<rect x="190" y="374.0" width="480.0" height="12" rx="3" fill="#008300"/>
<text x="676.0" y="383.6" font-size="10" fill="#0b0b0b">5</text>
<rect x="190" y="388.0" width="384.0" height="12" rx="3" fill="#e87ba4"/>
<text x="580.0" y="397.6" font-size="10" fill="#0b0b0b">4</text>
<text x="176" y="438.0" font-size="12" fill="#52514e" text-anchor="end">Fact separation</text>
<rect x="190" y="414.0" width="480.0" height="12" rx="3" fill="#2a78d6"/>
<text x="676.0" y="423.6" font-size="10" fill="#0b0b0b">5</text>
<rect x="190" y="428.0" width="480.0" height="12" rx="3" fill="#008300"/>
<text x="676.0" y="437.6" font-size="10" fill="#0b0b0b">5</text>
<rect x="190" y="442.0" width="480.0" height="12" rx="3" fill="#e87ba4"/>
<text x="676.0" y="451.6" font-size="10" fill="#0b0b0b">5</text>
<text x="176" y="492.0" font-size="12" fill="#52514e" text-anchor="end">Missing information</text>
<rect x="190" y="468.0" width="480.0" height="12" rx="3" fill="#2a78d6"/>
<text x="676.0" y="477.6" font-size="10" fill="#0b0b0b">5</text>
<rect x="190" y="482.0" width="480.0" height="12" rx="3" fill="#008300"/>
<text x="676.0" y="491.6" font-size="10" fill="#0b0b0b">5</text>
<rect x="190" y="496.0" width="288.0" height="12" rx="3" fill="#e87ba4"/>
<text x="484.0" y="505.6" font-size="10" fill="#0b0b0b">3</text>
<text x="176" y="546.0" font-size="12" fill="#52514e" text-anchor="end">Commercial usefulness</text>
<rect x="190" y="522.0" width="480.0" height="12" rx="3" fill="#2a78d6"/>
<text x="676.0" y="531.6" font-size="10" fill="#0b0b0b">5</text>
<rect x="190" y="536.0" width="480.0" height="12" rx="3" fill="#008300"/>
<text x="676.0" y="545.6" font-size="10" fill="#0b0b0b">5</text>
<rect x="190" y="550.0" width="384.0" height="12" rx="3" fill="#e87ba4"/>
<text x="580.0" y="559.6" font-size="10" fill="#0b0b0b">4</text>
<text x="176" y="600.0" font-size="12" fill="#52514e" text-anchor="end">Next step clarity</text>
<rect x="190" y="576.0" width="384.0" height="12" rx="3" fill="#2a78d6"/>
<text x="580.0" y="585.6" font-size="10" fill="#0b0b0b">4</text>
<rect x="190" y="590.0" width="384.0" height="12" rx="3" fill="#008300"/>
<text x="580.0" y="599.6" font-size="10" fill="#0b0b0b">4</text>
<rect x="190" y="604.0" width="384.0" height="12" rx="3" fill="#e87ba4"/>
<text x="580.0" y="613.6" font-size="10" fill="#0b0b0b">4</text>
<text x="176" y="654.0" font-size="12" fill="#52514e" text-anchor="end">Tone</text>
<rect x="190" y="630.0" width="480.0" height="12" rx="3" fill="#2a78d6"/>
<text x="676.0" y="639.6" font-size="10" fill="#0b0b0b">5</text>
<rect x="190" y="644.0" width="384.0" height="12" rx="3" fill="#008300"/>
<text x="580.0" y="653.6" font-size="10" fill="#0b0b0b">4</text>
<rect x="190" y="658.0" width="384.0" height="12" rx="3" fill="#e87ba4"/>
<text x="580.0" y="667.6" font-size="10" fill="#0b0b0b">4</text>
<text x="176" y="708.0" font-size="12" fill="#52514e" text-anchor="end">Privacy</text>
<rect x="190" y="684.0" width="480.0" height="12" rx="3" fill="#2a78d6"/>
<text x="676.0" y="693.6" font-size="10" fill="#0b0b0b">5</text>
<rect x="190" y="698.0" width="480.0" height="12" rx="3" fill="#008300"/>
<text x="676.0" y="707.6" font-size="10" fill="#0b0b0b">5</text>
<rect x="190" y="712.0" width="480.0" height="12" rx="3" fill="#e87ba4"/>
<text x="676.0" y="721.6" font-size="10" fill="#0b0b0b">5</text>
<text x="176" y="762.0" font-size="12" fill="#52514e" text-anchor="end">Approval discipline</text>
<rect x="190" y="738.0" width="480.0" height="12" rx="3" fill="#2a78d6"/>
<text x="676.0" y="747.6" font-size="10" fill="#0b0b0b">5</text>
<rect x="190" y="752.0" width="480.0" height="12" rx="3" fill="#008300"/>
<text x="676.0" y="761.6" font-size="10" fill="#0b0b0b">5</text>
<rect x="190" y="766.0" width="480.0" height="12" rx="3" fill="#e87ba4"/>
<text x="676.0" y="775.6" font-size="10" fill="#0b0b0b">5</text>
<text x="176" y="816.0" font-size="12" fill="#52514e" text-anchor="end">Hallucination risk</text>
<rect x="190" y="792.0" width="480.0" height="12" rx="3" fill="#2a78d6"/>
<text x="676.0" y="801.6" font-size="10" fill="#0b0b0b">5</text>
<rect x="190" y="806.0" width="384.0" height="12" rx="3" fill="#008300"/>
<text x="580.0" y="815.6" font-size="10" fill="#0b0b0b">4</text>
<rect x="190" y="820.0" width="384.0" height="12" rx="3" fill="#e87ba4"/>
<text x="580.0" y="829.6" font-size="10" fill="#0b0b0b">4</text>
<text x="190.0" y="854" font-size="11" fill="#898781" text-anchor="middle">0</text>
<text x="286.0" y="854" font-size="11" fill="#898781" text-anchor="middle">1</text>
<text x="382.0" y="854" font-size="11" fill="#898781" text-anchor="middle">2</text>
<text x="478.0" y="854" font-size="11" fill="#898781" text-anchor="middle">3</text>
<text x="574.0" y="854" font-size="11" fill="#898781" text-anchor="middle">4</text>
<text x="670.0" y="854" font-size="11" fill="#898781" text-anchor="middle">5</text>
<line x1="30" y1="884" x2="830" y2="884" stroke="#e1e0d9" stroke-width="1"/>
<text x="30" y="904" font-size="11" fill="#898781">Run 19 July 2026, one transcript, one prompt, one run per model. Full method, caveats and the missing Copilot run: see the write-up this chart sits in.</text>
</svg>